<svg width="217" height="19" viewBox="0 0 217 19" fill="none" xmlns="http://www.w3.org/2000/svg">
<path d="M183.08 14.3005C172.051 12.2038 161.198 11.1775 150.35 10.2194C122.442 7.75232 94.3887 6.97069 66.1413 8.60015C44.9148 9.81817 23.6995 10.7388 2.48578 11.7851C2.22318 11.8013 1.96056 11.8176 1.70542 11.7868C1.01195 11.6961 0.0738352 11.8272 0.00493361 10.6677C-0.0789421 9.28383 0.914882 9.07472 1.67321 8.84752C6.50479 7.3939 11.347 7.46695 16.1645 7.15001C32.8333 6.06815 49.5159 3.89778 66.191 2.09302C80.3238 0.560666 94.4201 -0.0122968 108.496 0.000225215C118.585 0.00787251 128.656 0.263686 138.693 0.832408C146.404 1.26391 154.091 1.93299 161.743 2.82806C170.429 3.84862 179.103 4.99271 187.657 6.88999C196.707 8.89486 205.769 10.9208 214.149 15.5992C214.441 15.7613 214.76 15.8504 215.03 16.0574C215.5 16.4214 216.236 16.6058 216.082 17.5756C215.905 18.6959 215.118 18.7353 214.479 18.7112C211.565 18.5964 208.62 18.6311 205.742 18.2422C198.033 17.2031 190.498 15.12 183.084 14.3205L183.08 14.3005Z" fill="#2172CF"/>
</svg>
